<svg version="1.1" id="Слой_1" xmlns="http://www.w3.org/2000/svg" xmlns:xlink="http://www.w3.org/1999/xlink" x="0px" y="0px"
	 viewBox="478.4 483.4 43.2 33.2" enable-background="new 478.4 483.4 43.2 33.2" xml:space="preserve">
<path fill="#009f22" d="M478.9,501.7c-0.3-0.3-0.5-0.8-0.5-1.2s0.2-0.8,0.5-1.2l2.3-2.3c0.7-0.7,1.7-0.7,2.3,0l0.2,0.2l9.1,9.8
	c0.3,0.3,0.8,0.3,1.2,0l22.3-23.1h0.2l0,0c0.7-0.7,1.7-0.7,2.3,0l2.3,2.3c0.7,0.7,0.7,1.7,0,2.3l0,0l-26.6,27.6
	c-0.3,0.3-0.7,0.5-1.2,0.5c-0.5,0-0.8-0.2-1.2-0.5l-13-14L478.9,501.7L478.9,501.7z"/>
</svg>
